<mxfile host="app.diagrams.net" modified="2022-07-10T13:42:32.796Z" agent="5.0 (X11)" etag="VWy4FtEv-M744ruFkc6l" version="20.0.4" type="github">
  <diagram id="WTRNsTzczFgoq6ay4KHm" name="Page-1">
    <mxGraphModel dx="1422" dy="712" grid="0" gridSize="10" guides="1" tooltips="1" connect="1" arrows="1" fold="1" page="1" pageScale="1" pageWidth="1169" pageHeight="1654" math="0" shadow="0">
      <root>
        <mxCell id="0" />
        <mxCell id="1" parent="0" />
        <mxCell id="8-KTVndnOdOdh2vYL62E-14" value="" style="swimlane;startSize=0;shadow=0;fillColor=default;gradientColor=none;" vertex="1" parent="1">
          <mxGeometry x="299" y="164" width="579" height="213" as="geometry" />
        </mxCell>
        <mxCell id="8-KTVndnOdOdh2vYL62E-20" value="RDF data dump" style="edgeStyle=none;rounded=0;orthogonalLoop=1;jettySize=auto;html=1;exitX=1;exitY=0.5;exitDx=0;exitDy=0;entryX=0.075;entryY=-0.017;entryDx=0;entryDy=0;entryPerimeter=0;startArrow=none;startFill=0;endArrow=classic;endFill=1;" edge="1" parent="8-KTVndnOdOdh2vYL62E-14" source="8-KTVndnOdOdh2vYL62E-17" target="8-KTVndnOdOdh2vYL62E-19">
          <mxGeometry relative="1" as="geometry" />
        </mxCell>
        <mxCell id="8-KTVndnOdOdh2vYL62E-17" value="meta-data in wikibase" style="shape=process;whiteSpace=wrap;html=1;backgroundOutline=1;shadow=0;fillColor=default;gradientColor=none;" vertex="1" parent="8-KTVndnOdOdh2vYL62E-14">
          <mxGeometry x="30" y="31" width="120" height="60" as="geometry" />
        </mxCell>
        <mxCell id="8-KTVndnOdOdh2vYL62E-22" value="doc as free-text" style="edgeStyle=none;rounded=0;orthogonalLoop=1;jettySize=auto;html=1;exitX=1;exitY=0.5;exitDx=0;exitDy=0;startArrow=none;startFill=0;endArrow=classic;endFill=1;" edge="1" parent="8-KTVndnOdOdh2vYL62E-14" source="8-KTVndnOdOdh2vYL62E-18" target="8-KTVndnOdOdh2vYL62E-19">
          <mxGeometry relative="1" as="geometry" />
        </mxCell>
        <mxCell id="8-KTVndnOdOdh2vYL62E-18" value="document in database" style="shape=process;whiteSpace=wrap;html=1;backgroundOutline=1;shadow=0;fillColor=default;gradientColor=none;" vertex="1" parent="8-KTVndnOdOdh2vYL62E-14">
          <mxGeometry x="30" y="125" width="120" height="60" as="geometry" />
        </mxCell>
        <mxCell id="8-KTVndnOdOdh2vYL62E-30" value="" style="edgeStyle=none;rounded=0;orthogonalLoop=1;jettySize=auto;html=1;exitX=1;exitY=0.5;exitDx=0;exitDy=0;entryX=0;entryY=0.5;entryDx=0;entryDy=0;entryPerimeter=0;startArrow=none;startFill=0;endArrow=classic;endFill=1;" edge="1" parent="8-KTVndnOdOdh2vYL62E-14" source="8-KTVndnOdOdh2vYL62E-19" target="8-KTVndnOdOdh2vYL62E-29">
          <mxGeometry relative="1" as="geometry" />
        </mxCell>
        <mxCell id="8-KTVndnOdOdh2vYL62E-19" value="QAnswer Search Engine" style="shape=process;whiteSpace=wrap;html=1;backgroundOutline=1;shadow=0;fillColor=default;gradientColor=none;" vertex="1" parent="8-KTVndnOdOdh2vYL62E-14">
          <mxGeometry x="254" y="91" width="120" height="60" as="geometry" />
        </mxCell>
        <mxCell id="8-KTVndnOdOdh2vYL62E-29" value="" style="sketch=0;aspect=fixed;pointerEvents=1;shadow=0;dashed=0;html=1;strokeColor=none;labelPosition=center;verticalLabelPosition=bottom;verticalAlign=top;align=center;shape=mxgraph.mscae.enterprise.website_generic;fillColor=#7D7D7D;" vertex="1" parent="8-KTVndnOdOdh2vYL62E-14">
          <mxGeometry x="501" y="92" width="65.91" height="58" as="geometry" />
        </mxCell>
        <mxCell id="8-KTVndnOdOdh2vYL62E-31" value="&lt;div&gt;response to query in &lt;br&gt;&lt;/div&gt;&lt;div&gt;natural language&lt;br&gt;&lt;/div&gt;" style="text;html=1;align=center;verticalAlign=middle;resizable=0;points=[];autosize=1;strokeColor=none;fillColor=none;" vertex="1" parent="8-KTVndnOdOdh2vYL62E-14">
          <mxGeometry x="374" y="134.5" width="127" height="41" as="geometry" />
        </mxCell>
        <mxCell id="8-KTVndnOdOdh2vYL62E-23" style="edgeStyle=none;rounded=0;orthogonalLoop=1;jettySize=auto;html=1;exitX=1;exitY=0.5;exitDx=0;exitDy=0;startArrow=none;startFill=0;endArrow=classic;endFill=1;" edge="1" parent="1" source="8-KTVndnOdOdh2vYL62E-14" target="8-KTVndnOdOdh2vYL62E-14">
          <mxGeometry relative="1" as="geometry" />
        </mxCell>
        <mxCell id="8-KTVndnOdOdh2vYL62E-42" style="edgeStyle=none;rounded=0;orthogonalLoop=1;jettySize=auto;html=1;exitX=1;exitY=0.75;exitDx=0;exitDy=0;startArrow=none;startFill=0;endArrow=classic;endFill=1;" edge="1" parent="1" source="8-KTVndnOdOdh2vYL62E-35" target="8-KTVndnOdOdh2vYL62E-14">
          <mxGeometry relative="1" as="geometry" />
        </mxCell>
        <mxCell id="8-KTVndnOdOdh2vYL62E-35" value="" style="shape=document;whiteSpace=wrap;html=1;boundedLbl=1;shadow=0;fillColor=default;gradientColor=none;" vertex="1" parent="1">
          <mxGeometry x="101" y="219" width="120" height="80" as="geometry" />
        </mxCell>
        <mxCell id="8-KTVndnOdOdh2vYL62E-38" value="" style="shape=document;whiteSpace=wrap;html=1;boundedLbl=1;shadow=0;fillColor=default;gradientColor=none;" vertex="1" parent="1">
          <mxGeometry x="86" y="235" width="120" height="80" as="geometry" />
        </mxCell>
        <mxCell id="8-KTVndnOdOdh2vYL62E-39" value="" style="shape=document;whiteSpace=wrap;html=1;boundedLbl=1;shadow=0;fillColor=default;gradientColor=none;" vertex="1" parent="1">
          <mxGeometry x="69" y="256" width="120" height="80" as="geometry" />
        </mxCell>
        <mxCell id="8-KTVndnOdOdh2vYL62E-43" value="&lt;div&gt;documents&lt;/div&gt;&lt;div&gt;&lt;br&gt;&lt;/div&gt;" style="text;html=1;align=center;verticalAlign=middle;resizable=0;points=[];autosize=1;strokeColor=none;fillColor=none;" vertex="1" parent="1">
          <mxGeometry x="99" y="330" width="77" height="41" as="geometry" />
        </mxCell>
        <mxCell id="8-KTVndnOdOdh2vYL62E-46" value="stakeholder" style="shape=umlActor;verticalLabelPosition=bottom;verticalAlign=top;html=1;outlineConnect=0;shadow=0;fillColor=default;gradientColor=none;" vertex="1" parent="1">
          <mxGeometry x="987" y="255" width="30" height="60" as="geometry" />
        </mxCell>
        <mxCell id="8-KTVndnOdOdh2vYL62E-47" value="display" style="edgeStyle=none;rounded=0;orthogonalLoop=1;jettySize=auto;html=1;exitX=0.93;exitY=0.5;exitDx=0;exitDy=0;exitPerimeter=0;entryX=0.5;entryY=0.5;entryDx=0;entryDy=0;entryPerimeter=0;startArrow=none;startFill=0;endArrow=classic;endFill=1;" edge="1" parent="1" source="8-KTVndnOdOdh2vYL62E-29" target="8-KTVndnOdOdh2vYL62E-46">
          <mxGeometry relative="1" as="geometry" />
        </mxCell>
      </root>
    </mxGraphModel>
  </diagram>
</mxfile>
